<svg width="53" height="38" viewBox="0 0 53 38" fill="none" xmlns="http://www.w3.org/2000/svg">
<path d="M53 11.1061V26.3583C53 36.0718 41.2422 40.9059 34.4231 33.996L31.4217 30.9546L38.6995 23.5808L42.4069 19.8234V12.0218C42.4069 11.2906 41.5218 10.9266 41.0084 11.4468L33.8654 18.684L26.5876 26.0578L19.3098 18.684L18.5875 17.952C17.8411 17.1954 16.5539 17.7246 16.5539 18.7879V25.9739L21.6126 31.0994L18.5761 34.1757C11.7568 41.0846 0 36.2502 0 26.5372V10.9293C0 1.18038 11.8004 -3.67177 18.6448 3.26283L26.5876 11.3103L34.3549 3.43994C41.1992 -3.49509 53 1.35696 53 11.1061Z" fill="#2C72FF"/>
</svg>
