<svg width="290" height="98" viewBox="0 0 290 98" fill="none" xmlns="http://www.w3.org/2000/svg">
<rect x="0.5" y="0.5" width="289" height="97" rx="9.5" stroke="white" stroke-opacity="0.15"/>
<g clip-path="url(#clip0_131_197)">
<path d="M215.175 48.4933V48.5497C216.654 48.7215 217.805 49.2372 218.654 50.0995C219.507 50.9649 219.968 52.1431 219.931 53.359C219.991 55.0925 219.237 56.7539 217.893 57.8484C216.533 58.9841 214.685 59.5513 212.351 59.5492C211.411 59.5497 210.474 59.4424 209.558 59.2292C208.822 59.0878 208.115 58.8253 207.464 58.4528V55.137C208.136 55.6579 208.893 56.0588 209.7 56.3223C210.529 56.6122 211.399 56.7633 212.277 56.7696C213.546 56.7696 214.551 56.4732 215.291 55.8807C216.018 55.297 216.427 54.402 216.391 53.4685C216.436 52.4647 215.938 51.5145 215.086 50.9825C214.214 50.4107 212.972 50.1261 211.351 50.1261H209.576V47.2844H211.265C212.697 47.2844 213.799 47.0176 214.572 46.4844C215.335 45.9572 215.766 45.0674 215.708 44.1404C215.762 43.319 215.434 42.5184 214.82 41.9713C214.229 41.4646 213.365 41.2098 212.256 41.2128C211.55 41.2126 210.85 41.3349 210.186 41.5742C209.484 41.8326 208.827 42.1994 208.239 42.6617V39.5741C208.931 39.1953 209.673 38.916 210.443 38.7443C211.325 38.5422 212.227 38.4427 213.132 38.4479C214.906 38.4479 216.367 38.9083 217.515 39.8289C218.621 40.6855 219.255 42.0172 219.224 43.4172C219.272 44.5943 218.9 45.7499 218.174 46.6769C217.395 47.5889 216.343 48.2258 215.175 48.4933Z" fill="#F9F9F9"/>
<path d="M225.468 48.5851C225.863 47.831 226.498 47.2304 227.272 46.8782C228.12 46.4773 229.047 46.2745 229.985 46.2857C231.522 46.2644 233.007 46.8436 234.126 47.9007C235.285 48.9792 235.865 50.5438 235.865 52.5943C235.865 54.7576 235.2 56.4556 233.871 57.6882C232.557 58.915 230.816 59.5787 229.021 59.5371C226.796 59.5371 225.045 58.7096 223.768 57.054C222.49 55.3985 221.854 53.0912 221.86 50.1319C221.86 46.2798 222.709 43.368 224.406 41.3964C225.977 39.4818 228.334 38.3905 230.807 38.4331C231.523 38.4277 232.239 38.4741 232.948 38.5724C233.493 38.6401 234.024 38.7889 234.525 39.0138V42.1046C233.963 41.8096 233.367 41.5846 232.75 41.4348C232.169 41.2917 231.574 41.2181 230.975 41.2157C229.401 41.1725 227.901 41.8915 226.947 43.1476C225.932 44.4357 225.415 46.2451 225.397 48.5762L225.468 48.5851ZM225.524 52.5973C225.491 53.6657 225.845 54.7099 226.521 55.5367C227.135 56.3032 228.069 56.741 229.05 56.7222C229.972 56.7577 230.862 56.3824 231.481 55.6968C232.102 55.0113 232.412 54.0701 232.41 52.873C232.41 51.6047 232.106 50.6445 231.499 49.9926C230.851 49.3241 229.946 48.9695 229.018 49.0208C228.072 48.9811 227.153 49.3389 226.483 50.0074C225.825 50.7068 225.481 51.644 225.528 52.6032L225.524 52.5973Z" fill="#F9F9F9"/>
<path d="M250 52.8313C250 54.8543 249.323 56.4829 247.971 57.7178C246.618 58.9523 244.758 59.5628 242.389 59.549C241.445 59.5553 240.503 59.4327 239.591 59.1845C238.873 59.0019 238.179 58.7375 237.521 58.3963V55.193C238.199 55.7114 238.959 56.112 239.769 56.3784C240.486 56.6184 241.237 56.7456 241.993 56.7548C243.348 56.7548 244.432 56.4179 245.247 55.7441C246.061 55.074 246.514 54.0587 246.468 53.0031C246.517 51.9705 246.05 50.9811 245.223 50.363C244.387 49.7348 243.182 49.4217 241.609 49.4236C241.144 49.4236 240.538 49.4443 239.784 49.4859C239.029 49.5275 238.512 49.5689 238.228 49.6075L238.952 38.8064H249.077V41.7281H241.792L241.458 46.6974C241.854 46.6649 242.162 46.6501 242.372 46.6471H243.259C245.398 46.6372 247.06 47.1844 248.243 48.2888C249.426 49.393 250.012 50.9072 250 52.8313Z" fill="#F9F9F9"/>
<path d="M106.165 38.8064V59.2054H102.615V43.2129H102.559L96.2414 59.2143H93.8987L87.4272 43.2129H87.3858V59.2143H84.1323V38.8064H89.202L95.0316 53.9189H95.1174L101.296 38.8064H106.165ZM109.122 40.3562C109.112 39.8129 109.338 39.2918 109.74 38.928C110.58 38.1502 111.876 38.1502 112.716 38.928C113.098 39.2991 113.312 39.8112 113.308 40.3444C113.325 40.8858 113.103 41.4071 112.701 41.7697C112.302 42.1462 111.771 42.3506 111.222 42.3386C110.673 42.3522 110.141 42.1464 109.743 41.7668C109.347 41.4088 109.123 40.8971 109.128 40.3622L109.122 40.3562ZM112.914 44.5848V59.2143H109.471V44.5789L112.914 44.5848ZM123.337 56.6955C123.913 56.6828 124.482 56.5633 125.014 56.343C125.623 56.1085 126.196 55.7916 126.718 55.4007V58.6038C126.133 58.9299 125.505 59.1696 124.852 59.3151C124.098 59.4819 123.328 59.5635 122.556 59.5579C120.409 59.5579 118.664 58.8765 117.321 57.5133C115.978 56.1504 115.306 54.4128 115.304 52.3012C115.304 49.9522 115.994 48.0201 117.374 46.5049C118.755 44.9899 120.699 44.2194 123.207 44.1937C123.866 44.1963 124.523 44.2799 125.162 44.4425C125.708 44.5716 126.235 44.7707 126.73 45.0353V48.3393C126.23 47.9709 125.683 47.6719 125.103 47.4503C124.561 47.2286 123.982 47.111 123.396 47.1036C122.164 47.0529 120.97 47.5342 120.116 48.4252C119.282 49.3082 118.866 50.4994 118.868 51.9988C118.87 53.4981 119.269 54.65 120.066 55.4541C120.855 56.2778 121.939 56.6875 123.319 56.6837L123.337 56.6955ZM136.502 44.3359C136.75 44.3324 136.997 44.3514 137.242 44.3923C137.429 44.4218 137.613 44.4695 137.792 44.5344V48.0192C137.549 47.8561 137.284 47.7293 137.005 47.6429C136.598 47.5159 136.174 47.4559 135.748 47.4651C134.907 47.4646 134.116 47.8596 133.609 48.5318C133.018 49.2431 132.727 50.3385 132.737 51.8181V59.1995H129.312V44.57H132.746V46.8724H132.805C133.084 46.1322 133.574 45.4909 134.216 45.0294C134.885 44.5608 135.686 44.318 136.502 44.3359ZM137.981 52.1026C137.981 49.6846 138.663 47.7693 140.028 46.3567C141.392 44.9443 143.286 44.2371 145.71 44.2352C147.991 44.2352 149.773 44.9158 151.054 46.2767C152.336 47.638 152.979 49.4781 152.983 51.7974C152.983 54.1679 152.301 56.0555 150.939 57.4601C149.576 58.8647 147.721 59.5659 145.372 59.5638C143.111 59.5638 141.315 58.8981 139.986 57.5667C138.657 56.2353 137.988 54.4138 137.978 52.1026H137.981ZM141.566 51.9869C141.566 53.5161 141.911 54.6825 142.601 55.4866C143.291 56.2905 144.277 56.6936 145.559 56.6955C146.809 56.6955 147.76 56.2925 148.413 55.4866C149.066 54.6805 149.393 53.4844 149.395 51.8981C149.395 50.3176 149.056 49.1324 148.377 48.3422C147.699 47.5521 146.751 47.15 145.532 47.1361C144.272 47.1361 143.295 47.5559 142.601 48.3956C141.907 49.2351 141.557 50.4342 141.551 51.9928L141.566 51.9869ZM158.097 48.4311C158.075 48.8678 158.247 49.292 158.567 49.5898C158.88 49.8682 159.571 50.222 160.637 50.6505C162.018 51.2017 162.98 51.82 163.524 52.5054C164.083 53.2099 164.376 54.0891 164.352 54.9888C164.385 56.2812 163.794 57.5107 162.764 58.2897C161.711 59.1292 160.285 59.5491 158.487 59.5491C157.811 59.5404 157.137 59.4659 156.476 59.3268C155.836 59.2116 155.212 59.0269 154.612 58.7756V55.4007C155.235 55.8367 155.913 56.1858 156.63 56.4378C157.256 56.6767 157.918 56.807 158.588 56.823C159.178 56.8613 159.768 56.7491 160.303 56.4971C160.68 56.2618 160.893 55.835 160.856 55.3916C160.86 54.9245 160.648 54.4815 160.282 54.1916C159.614 53.7115 158.879 53.3303 158.103 53.0597C156.831 52.5282 155.93 51.9356 155.402 51.2817C154.851 50.5556 154.571 49.6593 154.61 48.7482C154.582 47.4731 155.165 46.2619 156.177 45.4887C157.224 44.6391 158.581 44.2135 160.247 44.2114C160.823 44.2171 161.396 44.2737 161.962 44.3803C162.507 44.4697 163.041 44.6177 163.554 44.8219V48.0904C163.056 47.7669 162.522 47.5043 161.962 47.3081C161.389 47.0957 160.784 46.9844 160.173 46.9792C159.636 46.9479 159.103 47.0836 158.647 47.3674C158.289 47.5954 158.075 47.9942 158.085 48.4193L158.097 48.4311ZM165.837 52.1142C165.837 49.6964 166.518 47.7811 167.881 46.3687C169.244 44.9561 171.136 44.249 173.56 44.2471C175.843 44.2471 177.626 44.9276 178.907 46.2887C180.189 47.6498 180.832 49.4901 180.836 51.8092C180.836 54.1797 180.154 56.0673 178.792 57.4719C177.429 58.8765 175.573 59.5779 173.222 59.5758C170.959 59.5758 169.163 58.9101 167.836 57.5785C166.509 56.2471 165.84 54.4257 165.828 52.1142H165.837ZM169.419 51.9988C169.419 53.5277 169.765 54.6944 170.457 55.4982C171.149 56.3025 172.134 56.7014 173.412 56.6955C174.66 56.6955 175.611 56.2925 176.266 55.4866C176.921 54.6805 177.247 53.4844 177.245 51.8981C177.245 50.3176 176.907 49.1324 176.231 48.3422C175.554 47.5521 174.605 47.15 173.382 47.1361C172.126 47.1361 171.149 47.5559 170.451 48.3956C169.753 49.2351 169.409 50.4342 169.419 51.9928V51.9988ZM192.235 47.3999H187.103V59.2054H183.625V47.3999H181.182V44.5848H183.625V42.5402C183.575 41.1276 184.118 39.7585 185.121 38.765C186.149 37.769 187.537 37.2342 188.967 37.2834C189.335 37.2815 189.704 37.3032 190.07 37.3486C190.359 37.3846 190.645 37.4491 190.922 37.5411V40.5044C190.731 40.4074 190.533 40.3262 190.33 40.2615C190.014 40.1635 189.685 40.1164 189.354 40.1221C188.729 40.0854 188.122 40.3338 187.701 40.7978C187.306 41.2481 187.109 41.9141 187.109 42.795V44.573H192.226V41.2897L195.678 40.2378V44.5789H199.144V47.3999H195.672V54.2361C195.672 55.1368 195.834 55.772 196.16 56.1414C196.485 56.5108 196.999 56.6955 197.701 56.6955C197.945 56.6872 198.187 56.6392 198.416 56.5533C198.671 56.467 198.915 56.3517 199.144 56.2096V59.0572C198.799 59.2195 198.434 59.3341 198.059 59.3979C197.565 59.4991 197.063 59.5518 196.559 59.5551C195.11 59.5551 194.025 59.1678 193.306 58.3935C192.586 57.619 192.224 56.4555 192.22 54.9029L192.235 47.3999Z" fill="#F9F9F9"/>
<path d="M56.1286 32H40V48.1584H56.1286V32Z" fill="#F9F9F9"/>
<path d="M73.9343 32H57.8057V48.1584H73.9343V32Z" fill="#F9F9F9"/>
<path d="M56.1286 49.8416H40V65.9999H56.1286V49.8416Z" fill="#F9F9F9"/>
<path d="M73.9343 49.8416H57.8057V65.9999H73.9343V49.8416Z" fill="#F9F9F9"/>
</g>
<defs>
<clipPath id="clip0_131_197">
<rect width="210" height="34" fill="white" transform="translate(40 32)"/>
</clipPath>
</defs>
</svg>
