<svg width="340" height="98" viewBox="0 0 340 98" fill="none" xmlns="http://www.w3.org/2000/svg">
<rect x="0.5" y="0.5" width="339" height="97" rx="9.5" stroke="white" stroke-opacity="0.15"/>
<g clip-path="url(#clip0_131_192)">
<path d="M152.244 53.9746H169.424L160.34 39.3694L143.667 65.7763H136.079L156.359 34.0559C157.24 32.7743 158.71 32 160.34 32C161.916 32 163.386 32.7476 164.241 34.0025L184.601 65.7763H177.013L173.432 59.8754H156.038L152.244 53.9746ZM231.065 59.8754V32.3204H224.626V62.5722C224.626 63.3999 224.946 64.2009 225.561 64.815C226.175 65.4292 227.004 65.7763 227.912 65.7763H257.276L261.07 59.8754H231.065ZM124.536 54.9358C130.789 54.9358 135.865 49.8894 135.865 43.6415C135.865 37.3935 130.789 32.3204 124.536 32.3204H96.3664V65.7763H102.803V38.2212H124.109C127.101 38.2212 129.506 40.651 129.506 43.6415C129.506 46.6319 127.101 49.0617 124.109 49.0617L105.956 49.035L125.178 65.7763H134.529L121.597 54.9358H124.536ZM56.7423 65.7763C47.5001 65.7763 40 58.3001 40 49.0617C40 39.8233 47.5001 32.3204 56.7423 32.3204H76.2016C85.4464 32.3204 92.9411 39.8233 92.9411 49.0617C92.9411 58.3001 85.4464 65.7763 76.2016 65.7763H56.7423ZM75.7687 59.8754C81.7566 59.8754 86.6061 55.0426 86.6061 49.0617C86.6061 43.0807 81.7566 38.2212 75.7687 38.2212H57.1724C51.1873 38.2212 46.335 43.0807 46.335 49.0617C46.335 55.0426 51.1873 59.8754 57.1724 59.8754H75.7687ZM198.04 65.7763C188.796 65.7763 181.288 58.3001 181.288 49.0617C181.288 39.8233 188.796 32.3204 198.04 32.3204H221.152L217.385 38.2212H198.468C192.483 38.2212 187.62 43.0807 187.62 49.0617C187.62 55.0426 192.483 59.8754 198.468 59.8754H221.687L217.893 65.7763H198.04ZM276.781 59.8754C271.838 59.8754 267.643 56.5645 266.361 51.9987H293.881L297.675 46.0979H266.361C267.643 41.5588 271.838 38.2212 276.781 38.2212H295.672L299.492 32.3204H276.354C267.109 32.3204 259.601 39.8233 259.601 49.0617C259.601 58.3001 267.109 65.7763 276.354 65.7763H296.206L300 59.8754H276.781Z" fill="#F9F9F9"/>
</g>
<defs>
<clipPath id="clip0_131_192">
<rect width="260" height="34" fill="white" transform="translate(40 32)"/>
</clipPath>
</defs>
</svg>
