<svg width="360" height="98" viewBox="0 0 360 98" fill="none" xmlns="http://www.w3.org/2000/svg">
<rect x="0.5" y="0.5" width="359" height="97" rx="9.5" stroke="white" stroke-opacity="0.15"/>
<g clip-path="url(#clip0_131_179)">
<path d="M194.28 40.0796C194.28 36.9505 193.766 34.8955 192.46 33.5878C191.153 32.5604 189.1 32.0466 185.74 32.0466H165.533C162.173 32.0466 160.073 32.5604 158.813 33.5878C157.507 34.6153 156.993 36.717 156.993 40.0796V57.9669C156.993 61.0961 157.507 63.151 158.813 64.4587C160.12 65.4862 162.173 65.9999 165.533 65.9999H185.74C189.1 65.9999 191.2 65.4862 192.46 64.4587C193.766 63.4312 194.28 61.3296 194.28 57.9669V53.5768H185.74L182.333 59.5082H169.873L163.666 48.9065L169.873 38.2582H182.333L185.693 44.2362H194.233V40.0796H194.28Z" fill="#F9F9F9"/>
<path d="M154.613 53.5768V57.9669C154.613 61.0961 154.1 63.151 152.793 64.4587C151.487 65.4862 149.433 65.9999 146.073 65.9999H125.867C122.507 65.9999 120.407 65.4862 119.147 64.4587C117.84 63.4312 117.327 61.3296 117.327 57.9669V40.0796C117.327 36.9505 117.84 34.8955 119.147 33.5878C120.453 32.5604 122.507 32.0466 125.867 32.0466H146.073C149.433 32.0466 151.533 32.5604 152.793 33.5878C154.1 34.6153 154.613 36.717 154.613 40.0796V53.5768ZM124 48.9065L130.207 59.5548H142.667L148.873 48.9065L142.667 38.2582H130.207L124 48.9065Z" fill="#F9F9F9"/>
<path d="M233.667 53.5768V57.9669C233.667 61.0961 233.153 63.151 231.847 64.4587C230.54 65.4862 228.487 65.9999 225.127 65.9999H204.92C201.56 65.9999 199.46 65.4862 198.2 64.4587C196.893 63.4312 196.38 61.3296 196.38 57.9669V40.0796C196.38 36.9505 196.893 34.8955 198.2 33.5878C199.74 32.5604 201.84 32.0466 205.2 32.0466H225.407C228.767 32.0466 230.867 32.5604 232.127 33.5878C233.433 34.6153 233.947 36.717 233.947 40.0796V53.5768H233.667ZM203.333 48.9065L209.54 59.5548H222L228.207 48.9065L222 38.2582H209.54L203.333 48.9065Z" fill="#F9F9F9"/>
<path d="M169.126 48.9065L172.486 54.8378H179.486L182.846 48.9065L179.486 42.9285H172.486L169.126 48.9065Z" fill="#F9F9F9"/>
<path d="M40 66V32H68C73.9733 32 76.54 34.8489 76.54 38.7253V46.5247C76.54 50.4011 74.2067 53.25 68 53.25H49.3333V65.7198H40V66ZM64.36 39.5659H49.3333V46.0577H64.36C65.3867 46.0577 66.18 46.0577 66.4133 45.7775C66.9267 45.4972 67.2067 44.9835 67.2067 44.2363V41.6209C67.2067 40.8269 66.9267 40.3132 66.4133 40.0797C66.18 39.7995 65.3867 39.5659 64.36 39.5659Z" fill="#F9F9F9"/>
<path d="M78.3599 66V32H106.36C112.333 32 114.9 34.8489 114.9 38.7253V46.5247C114.9 50.4011 112.567 53.25 106.36 53.25H105.333L120.127 65.7198H106.407L93.1999 53.25H87.7399V65.7198H78.4065V66H78.3599ZM102.72 39.5659H87.6932V46.0577H102.72C103.747 46.0577 104.54 46.0577 104.773 45.7775C105.287 45.4972 105.567 44.9835 105.567 44.2363V41.6209C105.567 40.8269 105.287 40.3132 104.773 40.0797C104.54 39.7995 103.793 39.5659 102.72 39.5659Z" fill="#F9F9F9"/>
<path d="M236.513 66V32H264.513C270.487 32 273.053 34.8489 273.053 38.7253V46.5247C273.053 50.4011 270.72 53.25 264.513 53.25H263.487L278.28 65.7198H264.56L251.353 53.25H245.893V65.7198H236.56V66H236.513ZM260.64 39.5659H245.613V46.0577H260.64C261.667 46.0577 262.46 46.0577 262.693 45.7775C263.207 45.4972 263.487 44.9835 263.487 44.2363V41.6209C263.487 40.8269 263.207 40.3132 262.693 40.0797C262.46 39.7995 261.667 39.5659 260.64 39.5659Z" fill="#F9F9F9"/>
<path d="M275.387 66V32H310.107V39.5192H285V44.7033H299.793V52.2225H285V57.9203H310.667V65.9533H275.387V66Z" fill="#F9F9F9"/>
<path d="M320 35.6429C320 37.6978 318.46 39.2857 316.127 39.2857C314.073 39.2857 312.253 37.7445 312.253 35.6429C312.253 33.5412 314.073 32 316.127 32C318.46 32.0467 320 33.5879 320 35.6429ZM313.28 35.6429C313.28 37.1841 314.587 38.4918 316.127 38.4918C317.667 38.4918 318.973 37.1841 318.973 35.6429C318.973 34.1016 317.667 32.5137 316.127 32.5137C314.54 32.7939 313.28 34.1016 313.28 35.6429ZM315.613 37.7445H314.82V33.8214H316.127C316.92 33.8214 317.153 33.8214 317.433 34.1016C317.713 34.3819 317.713 34.6154 317.713 34.8956C317.713 35.4093 317.433 35.6896 316.92 35.6896C317.2 35.9698 317.433 36.2033 317.713 36.4835C317.713 36.9973 317.993 37.2775 317.993 37.511H316.967C316.967 37.2308 316.687 36.9973 316.687 36.717C316.687 36.2033 316.407 36.2033 315.893 36.2033H315.333V37.7445L315.613 37.7445ZM315.613 35.6429H316.127C316.64 35.6429 316.92 35.3626 316.92 35.1291C316.92 34.8489 316.64 34.6154 316.127 34.6154H315.613V35.6429Z" fill="#F9F9F9"/>
</g>
<defs>
<clipPath id="clip0_131_179">
<rect width="280" height="34" fill="white" transform="translate(40 32)"/>
</clipPath>
</defs>
</svg>
