<svg width="128" height="98" viewBox="0 0 128 98" fill="none" xmlns="http://www.w3.org/2000/svg">
<rect x="0.5" y="0.5" width="127" height="97" rx="9.5" stroke="white" stroke-opacity="0.15"/>
<g clip-path="url(#clip0_131_217)">
<path d="M81.9983 46.7767C82.1127 46.9486 82.1633 47.1809 82.1821 47.4359H80.2002C80.2396 47.1715 80.3127 46.9486 80.4252 46.7767C80.5939 46.5142 80.8546 46.3706 81.2183 46.3706C81.5839 46.3706 81.8258 46.5142 81.9983 46.7767Z" fill="#F9F9F9"/>
<path d="M70.9375 46.7769C70.7632 46.5143 70.5025 46.3878 70.1369 46.3878C69.7713 46.3878 69.5107 46.5143 69.3419 46.7769C69.1694 47.0413 69.0813 47.4172 69.0813 47.897C69.0813 48.3768 69.1694 48.7545 69.3419 49.0209C69.5107 49.2853 69.7713 49.4138 70.1369 49.4138C70.5025 49.4138 70.7632 49.2853 70.9357 49.0209C71.1119 48.7545 71.2 48.3768 71.2 47.897C71.2 47.4172 71.1119 47.0413 70.9375 46.7769ZM70.9375 46.7769C70.7632 46.5143 70.5025 46.3878 70.1369 46.3878C69.7713 46.3878 69.5107 46.5143 69.3419 46.7769C69.1694 47.0413 69.0813 47.4172 69.0813 47.897C69.0813 48.3768 69.1694 48.7545 69.3419 49.0209C69.5107 49.2853 69.7713 49.4138 70.1369 49.4138C70.5025 49.4138 70.7632 49.2853 70.9357 49.0209C71.1119 48.7545 71.2 48.3768 71.2 47.897C71.2 47.4172 71.1119 47.0413 70.9375 46.7769ZM59.74 46.7769C59.5657 46.5143 59.3238 46.3708 58.96 46.3708C58.5944 46.3708 58.3357 46.5143 58.165 46.7769C58.0525 46.9488 57.9794 47.1717 57.94 47.4361H59.9238C59.9032 47.1811 59.8525 46.9488 59.74 46.7769ZM70.9375 46.7769C70.7632 46.5143 70.5025 46.3878 70.1369 46.3878C69.7713 46.3878 69.5107 46.5143 69.3419 46.7769C69.1694 47.0413 69.0813 47.4172 69.0813 47.897C69.0813 48.3768 69.1694 48.7545 69.3419 49.0209C69.5107 49.2853 69.7713 49.4138 70.1369 49.4138C70.5025 49.4138 70.7632 49.2853 70.9357 49.0209C71.1119 48.7545 71.2 48.3768 71.2 47.897C71.2 47.4172 71.1119 47.0413 70.9375 46.7769ZM70.9375 46.7769C70.7632 46.5143 70.5025 46.3878 70.1369 46.3878C69.7713 46.3878 69.5107 46.5143 69.3419 46.7769C69.1694 47.0413 69.0813 47.4172 69.0813 47.897C69.0813 48.3768 69.1694 48.7545 69.3419 49.0209C69.5107 49.2853 69.7713 49.4138 70.1369 49.4138C70.5025 49.4138 70.7632 49.2853 70.9357 49.0209C71.1119 48.7545 71.2 48.3768 71.2 47.897C71.2 47.4172 71.1119 47.0413 70.9375 46.7769ZM59.74 46.7769C59.5657 46.5143 59.3238 46.3708 58.96 46.3708C58.5944 46.3708 58.3357 46.5143 58.165 46.7769C58.0525 46.9488 57.9794 47.1717 57.94 47.4361H59.9238C59.9032 47.1811 59.8525 46.9488 59.74 46.7769ZM52.7444 47.9952C52.1763 47.9877 51.9363 48.1992 51.9382 48.1992C51.7694 48.3182 51.6888 48.4939 51.6888 48.7413C51.6888 48.8962 51.7169 49.019 51.7732 49.104C51.8088 49.1607 51.8238 49.1833 51.9325 49.2702C51.9307 49.2702 52.1819 49.4685 52.7482 49.4345C52.9469 49.4232 53.1344 49.3968 53.2713 49.376C53.41 49.3533 53.4982 49.3344 53.4982 49.3344V48.0613C53.4982 48.0613 53.1419 48.0009 52.7444 47.9952ZM59.74 46.7769C59.5657 46.5143 59.3238 46.3708 58.96 46.3708C58.5944 46.3708 58.3357 46.5143 58.165 46.7769C58.0525 46.9488 57.9794 47.1717 57.94 47.4361H59.9238C59.9032 47.1811 59.8525 46.9488 59.74 46.7769ZM70.9375 46.7769C70.7632 46.5143 70.5025 46.3878 70.1369 46.3878C69.7713 46.3878 69.5107 46.5143 69.3419 46.7769C69.1694 47.0413 69.0813 47.4172 69.0813 47.897C69.0813 48.3768 69.1694 48.7545 69.3419 49.0209C69.5107 49.2853 69.7713 49.4138 70.1369 49.4138C70.5025 49.4138 70.7632 49.2853 70.9357 49.0209C71.1119 48.7545 71.2 48.3768 71.2 47.897C71.2 47.4172 71.1119 47.0413 70.9375 46.7769ZM70.9375 46.7769C70.7632 46.5143 70.5025 46.3878 70.1369 46.3878C69.7713 46.3878 69.5107 46.5143 69.3419 46.7769C69.1694 47.0413 69.0813 47.4172 69.0813 47.897C69.0813 48.3768 69.1694 48.7545 69.3419 49.0209C69.5107 49.2853 69.7713 49.4138 70.1369 49.4138C70.5025 49.4138 70.7632 49.2853 70.9357 49.0209C71.1119 48.7545 71.2 48.3768 71.2 47.897C71.2 47.4172 71.1119 47.0413 70.9375 46.7769ZM59.74 46.7769C59.5657 46.5143 59.3238 46.3708 58.96 46.3708C58.5944 46.3708 58.3357 46.5143 58.165 46.7769C58.0525 46.9488 57.9794 47.1717 57.94 47.4361H59.9238C59.9032 47.1811 59.8525 46.9488 59.74 46.7769ZM52.7444 47.9952C52.1763 47.9877 51.9363 48.1992 51.9382 48.1992C51.7694 48.3182 51.6888 48.4939 51.6888 48.7413C51.6888 48.8962 51.7169 49.019 51.7732 49.104C51.8088 49.1607 51.8238 49.1833 51.9325 49.2702C51.9307 49.2702 52.1819 49.4685 52.7482 49.4345C52.9469 49.4232 53.1344 49.3968 53.2713 49.376C53.41 49.3533 53.4982 49.3344 53.4982 49.3344V48.0613C53.4982 48.0613 53.1419 48.0009 52.7444 47.9952ZM77.6388 36.6052C76.15 36.6052 74.7344 36.9244 73.4575 37.5005C71.9857 34.8599 69.2257 33.0824 66.0588 33.0824C63.6775 33.0824 61.525 34.0892 59.9782 35.7118C58.2775 33.4715 55.5925 32.0247 52.5738 32.0247C47.4307 32.0247 43.2607 36.2199 43.2607 41.3935C43.2607 42.7195 43.5344 43.9794 44.0257 45.1203C41.6332 46.5294 40.0244 49.1625 40.0244 52.1772C40.0244 56.6765 43.6075 60.324 48.0269 60.324C48.5913 60.324 49.1425 60.2654 49.6732 60.1521C50.8863 63.4709 54.0513 65.8358 57.7638 65.8358C61.3282 65.8358 64.3882 63.656 65.7007 60.545C66.6982 61.0342 67.8213 61.31 69.0063 61.31C71.8394 61.31 74.3069 59.7384 75.6025 57.4113C76.2607 57.5454 76.9413 57.6153 77.6388 57.6153C83.3482 57.6153 87.9757 52.912 87.9757 47.1093C87.9757 41.3086 83.3482 36.6052 77.6388 36.6052ZM50.2919 48.7961C50.2919 49.6461 49.6807 50.1731 48.6982 50.1731C48.2144 50.1731 47.7532 50.0957 47.2638 49.835C47.1719 49.7821 47.08 49.7349 46.99 49.6688C46.9807 49.6537 46.9394 49.6385 46.9694 49.5592L47.1625 49.0171C47.1944 48.9227 47.2638 48.9529 47.2919 48.9718C47.3463 49.0039 47.3857 49.0341 47.455 49.0738C48.0269 49.4383 48.5557 49.4421 48.7225 49.4421C49.15 49.4421 49.4144 49.2135 49.4144 48.9057V48.8905C49.4144 48.5543 49.0075 48.4278 48.5332 48.2804L48.43 48.2483C47.7794 48.0613 47.0857 47.7931 47.0857 46.9658V46.9488C47.0857 46.163 47.7138 45.6152 48.6157 45.6152H48.7132C49.2419 45.6152 49.7538 45.7701 50.1232 45.9968C50.1569 46.0176 50.1888 46.0553 50.17 46.1082C50.1532 46.1554 49.99 46.6012 49.9694 46.6503C49.9357 46.7429 49.84 46.6805 49.84 46.6805C49.5175 46.5011 49.0132 46.3594 48.5913 46.3594C48.2088 46.3594 47.9632 46.5634 47.9632 46.8392V46.8562C47.9632 47.1811 48.3832 47.3171 48.8725 47.4777L48.955 47.506C49.6019 47.71 50.2919 47.9952 50.2919 48.781V48.7961ZM54.3194 49.8992C54.3194 49.8992 54.2163 49.9275 54.1244 49.9502C54.0325 49.971 53.6969 50.039 53.425 50.0862C53.1494 50.1334 52.8644 50.1561 52.5813 50.1561C52.3094 50.1561 52.0619 50.1315 51.8444 50.0805C51.6232 50.0314 51.4338 49.9483 51.2782 49.8331C51.1225 49.7198 51.0007 49.5724 50.9163 49.3968C50.8319 49.2211 50.7888 49.0039 50.7888 48.7564C50.7888 48.5128 50.8394 48.2955 50.9369 48.1123C51.0344 47.9272 51.1713 47.7723 51.34 47.6495C51.5088 47.5287 51.7038 47.438 51.9213 47.3794C52.1369 47.3209 52.3675 47.2907 52.6057 47.2907C52.78 47.2907 52.9263 47.2944 53.0388 47.3039C53.0388 47.3039 53.2582 47.3228 53.4963 47.3568V47.2397C53.4963 46.8657 53.4194 46.69 53.2675 46.5729C53.1119 46.452 52.8813 46.3915 52.5813 46.3915C52.5813 46.3915 51.9044 46.3821 51.37 46.6749C51.3457 46.69 51.325 46.6975 51.325 46.6975C51.325 46.6975 51.2575 46.7221 51.2332 46.6522L51.0363 46.1195C51.0063 46.044 51.0607 46.0081 51.0607 46.0081C51.3119 45.8117 51.9194 45.6927 51.9194 45.6927C52.12 45.653 52.4557 45.6247 52.6638 45.6247C53.2188 45.6247 53.6482 45.755 53.9407 46.0119C54.2332 46.2688 54.3813 46.6862 54.3813 47.2472L54.3832 49.8086C54.3832 49.8086 54.3888 49.8822 54.3194 49.8992ZM56.185 49.9804C56.185 50.0277 56.1513 50.0654 56.1063 50.0654H55.3675C55.3225 50.0654 55.2888 50.0277 55.2888 49.9804V44.004C55.2888 43.9587 55.3225 43.9209 55.3675 43.9209H56.1063C56.1513 43.9209 56.185 43.9587 56.185 44.004V49.9804ZM60.7882 48.0575C60.7807 48.1293 60.7075 48.1312 60.7075 48.1312L57.9269 48.1274C57.9457 48.5524 58.045 48.8547 58.2513 49.0605C58.4519 49.2608 58.7707 49.3873 59.2019 49.3892C59.8619 49.3892 60.145 49.257 60.3438 49.1814C60.3438 49.1814 60.4207 49.1531 60.4488 49.2305L60.6288 49.7424C60.6663 49.8293 60.6363 49.8595 60.6063 49.8765C60.4319 49.9748 60.0082 50.1542 59.2057 50.158C58.8157 50.158 58.4763 50.1013 58.1969 49.9937C57.9157 49.8841 57.6813 49.7273 57.4994 49.5271C57.3157 49.3269 57.1807 49.087 57.0963 48.815C57.0119 48.5449 56.9688 48.2427 56.9688 47.9215C56.9688 47.6042 57.01 47.302 57.0907 47.0262C57.1713 46.7504 57.2988 46.5049 57.4675 46.3009C57.6363 46.095 57.8519 45.9288 58.1088 45.8079C58.3638 45.687 58.6788 45.6284 59.0257 45.6284C59.3238 45.6284 59.5957 45.6927 59.8225 45.7909C59.995 45.8664 60.1694 46.0024 60.3494 46.197C60.4619 46.3179 60.6344 46.5861 60.7038 46.8505C60.8838 47.4833 60.79 48.0273 60.7882 48.0575ZM63.0982 50.1731C62.6144 50.1731 62.1532 50.0957 61.6638 49.835C61.5719 49.7821 61.48 49.7349 61.39 49.6688C61.3807 49.6537 61.3394 49.6385 61.3694 49.5592L61.5625 49.0171C61.5925 48.9283 61.675 48.9604 61.6938 48.9718C61.7444 49.0058 61.7857 49.0341 61.855 49.0738C62.4269 49.4383 62.9557 49.4421 63.1225 49.4421C63.55 49.4421 63.8163 49.2135 63.8163 48.9057V48.8905C63.8163 48.5543 63.4075 48.4278 62.9332 48.2804L62.83 48.2483C62.1794 48.0613 61.4857 47.7931 61.4857 46.9658V46.9488C61.4857 46.163 62.1138 45.6152 63.0157 45.6152H63.1132C63.6419 45.6152 64.1538 45.7701 64.5232 45.9968C64.555 46.0176 64.5888 46.0553 64.57 46.1082C64.5532 46.1554 64.39 46.6012 64.3694 46.6503C64.3357 46.7429 64.24 46.6805 64.24 46.6805C63.9157 46.5011 63.4132 46.3594 62.9894 46.3594C62.6088 46.3594 62.3632 46.5634 62.3632 46.8392V46.8562C62.3632 47.1811 62.7832 47.3171 63.2725 47.4777L63.355 47.506C64.0019 47.71 64.6919 47.9952 64.6919 48.781V48.7961C64.6919 49.6461 64.0807 50.1731 63.0982 50.1731ZM67.9525 46.3878C67.9375 46.4671 67.8663 46.469 67.8588 46.469H66.9438L66.3175 50.039C66.2519 50.4073 66.1694 50.7228 66.0738 50.9778C65.9763 51.2366 65.875 51.4254 65.7119 51.6049C65.5619 51.7711 65.3932 51.8939 65.1982 51.9657C65.005 52.0355 64.7725 52.0714 64.5157 52.0714C64.3938 52.0714 64.2644 52.0695 64.1088 52.0337C63.9982 52.0072 63.9382 51.9883 63.8557 51.9581C63.82 51.9449 63.7938 51.9014 63.8125 51.8467C63.8313 51.79 63.9963 51.3367 64.0188 51.2781C64.0469 51.2044 64.1182 51.2328 64.1182 51.2328C64.1688 51.2535 64.2044 51.2687 64.27 51.2819C64.3357 51.2951 64.4257 51.3064 64.4913 51.3064C64.6132 51.3064 64.7238 51.2913 64.8194 51.2592C64.9357 51.2195 65.0013 51.1515 65.0725 51.0609C65.1475 50.9664 65.2057 50.8361 65.2675 50.6623C65.3294 50.4867 65.3857 50.2543 65.4344 49.9729L66.0569 46.469H65.4419C65.3688 46.469 65.3444 46.4331 65.3519 46.3783L65.455 45.7965C65.4719 45.7116 65.5488 45.7153 65.5488 45.7153H66.1807L66.2144 45.5245C66.3082 44.9635 66.4957 44.5367 66.7732 44.2552C67.0507 43.9738 67.4463 43.8302 67.9488 43.8302C68.0932 43.8302 68.2207 43.8397 68.3275 43.8586C68.4325 43.8793 68.5132 43.8963 68.6013 43.9247C68.6219 43.9322 68.6744 43.9587 68.6538 44.0229L68.44 44.6103C68.4232 44.6538 68.41 44.6802 68.32 44.6538C68.2975 44.6462 68.2638 44.6368 68.1775 44.6179C68.1157 44.6047 68.0332 44.5952 67.9488 44.5952C67.84 44.5952 67.7388 44.6103 67.6507 44.6387C67.5644 44.667 67.4857 44.7161 67.4182 44.7841C67.3488 44.854 67.2682 44.956 67.2232 45.0825C67.1219 45.3791 67.0807 45.6945 67.0769 45.7153H67.9657C68.0407 45.7153 68.0632 45.7493 68.0557 45.8041L67.9525 46.3878ZM72.0213 48.7848C71.9407 49.0605 71.815 49.3023 71.6463 49.5044C71.4794 49.7065 71.2675 49.8671 71.0163 49.9823C70.765 50.0975 70.4688 50.1561 70.1369 50.1561C69.8032 50.1561 69.5069 50.0975 69.2557 49.9823C69.0063 49.8671 68.7925 49.7065 68.6257 49.5044C68.4588 49.3023 68.3332 49.0587 68.2525 48.7848C68.1719 48.5128 68.1307 48.2143 68.1307 47.897C68.1307 47.5797 68.1719 47.2812 68.2525 47.0073C68.3332 46.7334 68.4588 46.4917 68.6257 46.2896C68.7925 46.0874 69.0044 45.925 69.2557 45.806C69.5069 45.6889 69.8032 45.6284 70.1369 45.6284C70.4688 45.6284 70.7669 45.6889 71.0163 45.806C71.2675 45.925 71.4794 46.0874 71.6463 46.2896C71.815 46.4898 71.9407 46.7334 72.0213 47.0073C72.1019 47.2812 72.1413 47.5797 72.1413 47.897C72.1413 48.2124 72.1019 48.5128 72.0213 48.7848ZM75.4563 45.8608C75.43 45.9363 75.295 46.3198 75.2463 46.4482C75.2294 46.4973 75.1994 46.5294 75.1469 46.5238C75.1469 46.5238 74.9857 46.486 74.8413 46.486C74.74 46.486 74.5975 46.4992 74.4682 46.5389C74.3407 46.5785 74.2263 46.6484 74.125 46.7467C74.0238 46.8468 73.9413 46.9847 73.8813 47.1584C73.8194 47.3341 73.7894 47.6137 73.7894 47.8932V49.9804C73.7894 50.0277 73.7519 50.0654 73.705 50.0654H72.9738C72.9288 50.0654 72.8894 50.0277 72.8894 49.9804V45.8041C72.8894 45.7569 72.9232 45.7191 72.97 45.7191H73.6825C73.7294 45.7191 73.7613 45.7569 73.7613 45.8041V46.1441C73.8682 46.0005 74.0594 45.874 74.2319 45.7965C74.4063 45.7172 74.5994 45.6587 74.9482 45.6794C75.1319 45.6908 75.3682 45.7418 75.415 45.7607C75.4338 45.7663 75.4769 45.7965 75.4563 45.8608ZM78.9307 49.9445C78.6213 50.0673 78.19 50.1542 77.7682 50.1542C77.0575 50.1542 76.5119 49.9464 76.1482 49.5403C75.7844 49.1342 75.6007 48.5789 75.6007 47.8932C75.6007 47.5759 75.6457 47.2755 75.7357 47.0017C75.8238 46.7278 75.9588 46.486 76.135 46.2839C76.3113 46.0818 76.5344 45.9193 76.7969 45.8022C77.0594 45.6832 77.3669 45.6247 77.7119 45.6247C77.9425 45.6247 78.1507 45.6379 78.3269 45.6662C78.5182 45.6945 78.7694 45.7625 78.8744 45.806C78.895 45.8135 78.9475 45.84 78.925 45.9023C78.85 46.1233 78.7957 46.2669 78.7244 46.4671C78.6944 46.554 78.6288 46.5257 78.6288 46.5257C78.3588 46.4388 78.1 46.3991 77.7607 46.3991C77.3557 46.3991 77.05 46.537 76.8494 46.8033C76.6488 47.0715 76.5363 47.4248 76.5344 47.8932C76.5344 48.407 76.66 48.7885 76.8869 49.0228C77.1138 49.2589 77.4288 49.3779 77.8263 49.3779C77.9894 49.3779 78.1394 49.3665 78.2763 49.3458C78.4113 49.325 78.5388 49.2815 78.6588 49.2362C78.6588 49.2362 78.7357 49.206 78.7638 49.2853L78.9644 49.8463C78.9907 49.9162 78.9307 49.9445 78.9307 49.9445ZM83.0463 48.0575C83.0388 48.1293 82.9657 48.1312 82.9657 48.1312L80.1869 48.1274C80.2038 48.5524 80.305 48.8547 80.5113 49.0605C80.71 49.2608 81.0307 49.3873 81.4619 49.3892C82.12 49.3892 82.4032 49.257 82.6019 49.1814C82.6019 49.1814 82.6788 49.1531 82.7069 49.2305L82.8888 49.7424C82.9263 49.8293 82.8963 49.8595 82.8644 49.8765C82.6919 49.9748 82.2682 50.1542 81.4657 50.158C81.0757 50.158 80.7363 50.1013 80.4569 49.9937C80.1757 49.8841 79.9394 49.7273 79.7575 49.5271C79.5757 49.3269 79.4388 49.087 79.3544 48.815C79.27 48.5449 79.2288 48.2427 79.2288 47.9215C79.2288 47.6042 79.27 47.302 79.3507 47.0262C79.4313 46.7504 79.5588 46.5049 79.7275 46.3009C79.8963 46.095 80.1119 45.9288 80.3669 45.8079C80.6219 45.687 80.9369 45.6284 81.2838 45.6284C81.5819 45.6284 81.8538 45.6927 82.0807 45.7909C82.255 45.8664 82.4294 46.0024 82.6075 46.197C82.7219 46.3179 82.8944 46.5861 82.9638 46.8505C83.1419 47.4833 83.05 48.0273 83.0463 48.0575ZM70.1369 46.3878C69.7713 46.3878 69.5107 46.5143 69.3419 46.7769C69.1694 47.0413 69.0813 47.4172 69.0813 47.897C69.0813 48.3768 69.1694 48.7545 69.3419 49.0209C69.5107 49.2853 69.7713 49.4138 70.1369 49.4138C70.5025 49.4138 70.7632 49.2853 70.9357 49.0209C71.1119 48.7545 71.2 48.3768 71.2 47.897C71.2 47.4172 71.1119 47.0413 70.9375 46.7769C70.7632 46.5143 70.5025 46.3878 70.1369 46.3878ZM58.96 46.3708C58.5944 46.3708 58.3357 46.5143 58.165 46.7769C58.0525 46.9488 57.9794 47.1717 57.94 47.4361H59.9238C59.9032 47.1811 59.8525 46.9488 59.74 46.7769C59.5657 46.5143 59.3238 46.3708 58.96 46.3708ZM51.9382 48.1992C51.7694 48.3182 51.6888 48.4939 51.6888 48.7413C51.6888 48.8962 51.7169 49.019 51.7732 49.104C51.8088 49.1607 51.8238 49.1833 51.9325 49.2702C51.9307 49.2702 52.1819 49.4685 52.7482 49.4345C52.9469 49.4232 53.1344 49.3968 53.2713 49.376C53.41 49.3533 53.4982 49.3344 53.4982 49.3344V48.0613C53.4982 48.0613 53.1419 48.0009 52.7444 47.9952C52.1763 47.9877 51.9363 48.1992 51.9382 48.1992ZM59.74 46.7769C59.5657 46.5143 59.3238 46.3708 58.96 46.3708C58.5944 46.3708 58.3357 46.5143 58.165 46.7769C58.0525 46.9488 57.9794 47.1717 57.94 47.4361H59.9238C59.9032 47.1811 59.8525 46.9488 59.74 46.7769ZM70.9375 46.7769C70.7632 46.5143 70.5025 46.3878 70.1369 46.3878C69.7713 46.3878 69.5107 46.5143 69.3419 46.7769C69.1694 47.0413 69.0813 47.4172 69.0813 47.897C69.0813 48.3768 69.1694 48.7545 69.3419 49.0209C69.5107 49.2853 69.7713 49.4138 70.1369 49.4138C70.5025 49.4138 70.7632 49.2853 70.9357 49.0209C71.1119 48.7545 71.2 48.3768 71.2 47.897C71.2 47.4172 71.1119 47.0413 70.9375 46.7769ZM70.9375 46.7769C70.7632 46.5143 70.5025 46.3878 70.1369 46.3878C69.7713 46.3878 69.5107 46.5143 69.3419 46.7769C69.1694 47.0413 69.0813 47.4172 69.0813 47.897C69.0813 48.3768 69.1694 48.7545 69.3419 49.0209C69.5107 49.2853 69.7713 49.4138 70.1369 49.4138C70.5025 49.4138 70.7632 49.2853 70.9357 49.0209C71.1119 48.7545 71.2 48.3768 71.2 47.897C71.2 47.4172 71.1119 47.0413 70.9375 46.7769ZM59.74 46.7769C59.5657 46.5143 59.3238 46.3708 58.96 46.3708C58.5944 46.3708 58.3357 46.5143 58.165 46.7769C58.0525 46.9488 57.9794 47.1717 57.94 47.4361H59.9238C59.9032 47.1811 59.8525 46.9488 59.74 46.7769ZM70.9375 46.7769C70.7632 46.5143 70.5025 46.3878 70.1369 46.3878C69.7713 46.3878 69.5107 46.5143 69.3419 46.7769C69.1694 47.0413 69.0813 47.4172 69.0813 47.897C69.0813 48.3768 69.1694 48.7545 69.3419 49.0209C69.5107 49.2853 69.7713 49.4138 70.1369 49.4138C70.5025 49.4138 70.7632 49.2853 70.9357 49.0209C71.1119 48.7545 71.2 48.3768 71.2 47.897C71.2 47.4172 71.1119 47.0413 70.9375 46.7769ZM70.9375 46.7769C70.7632 46.5143 70.5025 46.3878 70.1369 46.3878C69.7713 46.3878 69.5107 46.5143 69.3419 46.7769C69.1694 47.0413 69.0813 47.4172 69.0813 47.897C69.0813 48.3768 69.1694 48.7545 69.3419 49.0209C69.5107 49.2853 69.7713 49.4138 70.1369 49.4138C70.5025 49.4138 70.7632 49.2853 70.9357 49.0209C71.1119 48.7545 71.2 48.3768 71.2 47.897C71.2 47.4172 71.1119 47.0413 70.9375 46.7769ZM70.9375 46.7769C70.7632 46.5143 70.5025 46.3878 70.1369 46.3878C69.7713 46.3878 69.5107 46.5143 69.3419 46.7769C69.1694 47.0413 69.0813 47.4172 69.0813 47.897C69.0813 48.3768 69.1694 48.7545 69.3419 49.0209C69.5107 49.2853 69.7713 49.4138 70.1369 49.4138C70.5025 49.4138 70.7632 49.2853 70.9357 49.0209C71.1119 48.7545 71.2 48.3768 71.2 47.897C71.2 47.4172 71.1119 47.0413 70.9375 46.7769ZM70.9375 46.7769C70.7632 46.5143 70.5025 46.3878 70.1369 46.3878C69.7713 46.3878 69.5107 46.5143 69.3419 46.7769C69.1694 47.0413 69.0813 47.4172 69.0813 47.897C69.0813 48.3768 69.1694 48.7545 69.3419 49.0209C69.5107 49.2853 69.7713 49.4138 70.1369 49.4138C70.5025 49.4138 70.7632 49.2853 70.9357 49.0209C71.1119 48.7545 71.2 48.3768 71.2 47.897C71.2 47.4172 71.1119 47.0413 70.9375 46.7769Z" fill="#F9F9F9"/>
</g>
<defs>
<clipPath id="clip0_131_217">
<rect width="48" height="34" fill="white" transform="translate(40 32)"/>
</clipPath>
</defs>
</svg>
