<svg width="149" height="98" viewBox="0 0 149 98" fill="none" xmlns="http://www.w3.org/2000/svg">
<rect x="0.5" y="0.5" width="148" height="97" rx="9.5" stroke="white" stroke-opacity="0.15"/>
<g clip-path="url(#clip0_131_209)">
<path fill-rule="evenodd" clip-rule="evenodd" d="M65.2721 45.0093L67.3826 51.7935C66.7484 52.0213 66.0248 52.1559 65.2513 52.1559C64.4611 52.1559 63.7167 52.0151 63.0742 51.7728L65.2284 45.0093H65.2721Z" fill="#F9F9F9"/>
<path fill-rule="evenodd" clip-rule="evenodd" d="M84.9319 45.5106C84.9319 47.6085 83.3433 48.267 81.3472 48.267H79.8501V42.8164H81.3472C83.3433 42.8164 84.9319 43.475 84.9319 45.5106Z" fill="#F9F9F9"/>
<path fill-rule="evenodd" clip-rule="evenodd" d="M40 32V65.9959H74.8701L109 32H40ZM82.0458 52.9181H79.8501V59.4125H69.7904L68.7923 56.3061C67.7277 56.654 66.5237 56.8466 65.2512 56.8466C63.9433 56.8466 62.7103 56.6416 61.627 56.2771L60.5894 59.4125H54.4221L55.1021 57.5984C55.021 57.6709 54.9378 57.7454 54.8546 57.8117C53.3159 59.0439 51.3926 59.7231 49.0076 59.7645L48.6541 59.7687C45.9198 59.7687 43.2354 59.0149 40.9669 57.7309L43.0649 53.5829C45.3355 54.9186 46.7619 55.2189 48.6895 55.1796C49.6855 55.1609 50.407 54.9787 50.879 54.4941C51.1618 54.198 51.3135 53.8335 51.3219 53.44C51.3406 52.3611 49.8019 51.8558 47.918 51.2759C46.3897 50.8038 44.6535 50.1597 43.302 49.1719C41.6926 47.9956 40.9294 46.5253 40.9669 44.4482C40.9918 42.9364 41.5532 41.5758 42.5929 40.5031C44.0838 38.9665 46.4937 38.0305 49.384 38.0305H49.4006C51.8791 38.0346 54.9045 38.7346 57.0961 39.8446L54.7299 43.9387C52.3366 42.7852 51.1285 42.6775 49.7624 42.603C47.733 42.4932 46.7016 43.2201 46.6892 43.9988C46.6725 44.9514 48.6084 45.8129 50.4423 46.3969C53.214 47.2749 56.7364 48.4491 57.2729 51.8371L62.3402 38.3887H68.2225L74.1569 54.4713V38.3887L80.948 38.3908C87.4396 38.3908 90.4899 40.6957 90.4899 45.7176C90.4899 50.228 87.3481 52.9181 82.0458 52.9181Z" fill="#F9F9F9"/>
<path d="M85.3727 63.9457C85.747 63.9022 86.036 63.7034 86.036 63.2478C86.036 62.7466 85.7366 62.525 85.1357 62.525H84.1625V65.066H84.5493V63.9643H84.9943L85.6659 65.066H86.1005L85.3727 63.9457ZM84.5493 63.6371V62.8522H85.0774C85.3415 62.8522 85.6285 62.9082 85.6285 63.225C85.6285 63.6164 85.3374 63.6371 85.013 63.6371H84.5493ZM85.0192 61.5911C83.7987 61.5911 82.7715 62.525 82.7715 63.7904C82.7715 65.066 83.7987 66 85.0192 66C86.2231 66 87.2545 65.066 87.2545 63.7904C87.2545 62.525 86.2231 61.5911 85.0192 61.5911ZM85.0192 65.6335C84.0066 65.6335 83.2165 64.8527 83.2165 63.7904C83.2165 62.7466 84.0066 61.9555 85.0192 61.9555C86.0173 61.9555 86.8095 62.7466 86.8095 63.7904C86.8095 64.8527 86.0173 65.6335 85.0192 65.6335ZM86.036 63.2478C86.036 62.7466 85.7366 62.525 85.1357 62.525H84.1625V65.066H84.5493V63.9643H84.9943L85.6659 65.066H86.1005L85.3727 63.9457C85.747 63.9022 86.036 63.7034 86.036 63.2478ZM84.5493 63.6371V62.8522H85.0774C85.3415 62.8522 85.6285 62.9082 85.6285 63.225C85.6285 63.6164 85.3374 63.6371 85.013 63.6371H84.5493ZM85.3727 63.9457C85.747 63.9022 86.036 63.7034 86.036 63.2478C86.036 62.7466 85.7366 62.525 85.1357 62.525H84.1625V65.066H84.5493V63.9643H84.9943L85.6659 65.066H86.1005L85.3727 63.9457ZM84.5493 63.6371V62.8522H85.0774C85.3415 62.8522 85.6285 62.9082 85.6285 63.225C85.6285 63.6164 85.3374 63.6371 85.013 63.6371H84.5493Z" fill="#F9F9F9"/>
</g>
<defs>
<clipPath id="clip0_131_209">
<rect width="69" height="34" fill="white" transform="translate(40 32)"/>
</clipPath>
</defs>
</svg>
